<svg xmlns="http://www.w3.org/2000/svg" viewBox="0 0 27.13 26.96"><defs><style>.cls-1{fill:#fff;}</style></defs><g id="Capa_2" data-name="Capa 2"><g id="Capa_1-2" data-name="Capa 1"><path class="cls-1" d="M13.56,0a13.56,13.56,0,0,0-2.11,27V17.48H8V13.56h3.45v-3c0-3.4,2-5.27,5.12-5.27a22,22,0,0,1,3,.27h0V8.9H17.9a1.81,1.81,0,0,0-.57,0,.14.14,0,0,0-.11,0,.9.9,0,0,0-.28.08,1.77,1.77,0,0,0-.31.15,2.83,2.83,0,0,0-.28.2,1.88,1.88,0,0,0-.24.25,1.81,1.81,0,0,0-.19.29,1.43,1.43,0,0,0-.13.28.46.46,0,0,0,0,.2.31.31,0,0,0,0,.13.19.19,0,0,0,0,.07v.07h0v0a1.61,1.61,0,0,0,0,.31v2.54h3.76l-.6,3.92H15.69V27A13.56,13.56,0,0,0,13.56,0Z"/></g></g></svg>