<svg xmlns="http://www.w3.org/2000/svg" viewBox="0 0 27.13 27.13"><defs><style>.cls-1{fill:#fff;}</style></defs><g id="Capa_2" data-name="Capa 2"><g id="Capa_1-2" data-name="Capa 1"><path class="cls-1" d="M13.63,11a2.5,2.5,0,1,0,2.51,2.51A2.51,2.51,0,0,0,13.63,11Z"/><path class="cls-1" d="M16.74,7.09H10.39a3.28,3.28,0,0,0-3.28,3.28v6.35A3.28,3.28,0,0,0,10.39,20h6.35A3.28,3.28,0,0,0,20,16.72V10.37A3.28,3.28,0,0,0,16.74,7.09ZM13.63,17.46a3.92,3.92,0,1,1,3.92-3.91A3.91,3.91,0,0,1,13.63,17.46Zm4.14-7.16a.94.94,0,1,1,.94-.93A.93.93,0,0,1,17.77,10.3Z"/><path class="cls-1" d="M13.57,0A13.57,13.57,0,1,0,27.13,13.57,13.58,13.58,0,0,0,13.57,0Zm8,16.72a4.79,4.79,0,0,1-4.78,4.78H10.39a4.79,4.79,0,0,1-4.78-4.78V10.37A4.78,4.78,0,0,1,10.39,5.6h6.35a4.78,4.78,0,0,1,4.78,4.77Z"/></g></g></svg>