<?xml version="1.0" encoding="iso-8859-1"?>
<!-- Uploaded to: SVG Repo, www.svgrepo.com, Generator: SVG Repo Mixer Tools -->
<!DOCTYPE svg PUBLIC "-//W3C//DTD SVG 1.1//EN" "http://www.w3.org/Graphics/SVG/1.1/DTD/svg11.dtd">
<svg fill="#000000" version="1.1" id="Capa_1" xmlns="http://www.w3.org/2000/svg" xmlns:xlink="http://www.w3.org/1999/xlink" 
	 width="800px" height="800px" viewBox="0 0 463.239 463.239"
	 xml:space="preserve">
<g>
	<g>
		<path d="M236.337,236.622l0.708-0.06v-0.03C237.081,236.52,236.751,236.568,236.337,236.622z"/>
		<path d="M452.773,220.415l-51.233-51.233c-6.73-6.74-15.678-10.448-25.201-10.448c-9.524,0-18.472,3.714-25.203,10.437
			l-24.103,24.091c-0.457-2.909-1.184-5.773-2.48-8.542l-3.177-6.641c-5.199-10.925-15.937-17.714-28.054-17.714
			c-4.984,0-10.017,1.226-14.532,3.543l-23.143,11.89l-10.796-26.121c-2.21-4.636-5.152-8.743-8.575-12.271
			c26.914-5.684,47.222-30.303,47.222-59.715c0-33.591-26.529-60.922-59.111-60.922c-32.597,0-59.111,27.331-59.111,60.922
			c0,8.242,1.625,16.105,4.516,23.274c-3.354-0.324-6.765-0.189-10.067,0.592c-1.021-0.075-2.054-0.129-3.087-0.129H60.069
			c-4.735,0-9.428,0.756-13.91,2.219c-8.656,1.954-16.066,7.71-20.113,15.312c-0.73,1.174-1.321,2.417-1.925,3.756
			c-1.667,3.867-2.483,7.562-2.483,11.337v69.655c0,17.993,13.964,32.634,31.108,32.634h7.134c17.158,0,31.104-14.641,31.104-32.634
			v-29.354h19.936l-38.707,77.39c-3.894,7.561-4.576,16.268-2.042,24.374c0,0.096,0,0.198,0,0.3v37.915H35.836
			C16.081,314.331,0,330.819,0,351.091v9.271c0,20.284,16.081,36.785,35.836,36.785h79.116c19.783,0,35.849-16.501,35.849-36.785
			v-20.645l92.212,95.824c6.792,7.05,15.853,10.929,25.515,10.929c9.668,0,18.723-3.879,25.521-10.929l6.287-6.563
			c13.715-14.225,13.715-37.397,0-51.646l-108.441-112.71l12.838-25.671c1.924,3.705,4.323,7.098,7.134,10.148
			c5.533,7.218,13.883,11.577,22.403,11.955c0.943,0.114,1.861,0.145,2.774,0.145l2.378-0.096c3.146-0.217,6.089-0.896,8.791-2.042
			l26.722-13.709l-5.645,5.675c-6.749,6.725-10.437,15.672-10.437,25.184c0,9.523,3.705,18.471,10.437,25.208l51.232,51.233
			c6.726,6.737,15.685,10.46,25.208,10.46c9.512,0,18.471-3.723,25.202-10.46l81.864-81.846
			c6.725-6.726,10.441-15.672,10.441-25.202C463.228,236.082,459.499,227.146,452.773,220.415z"/>
	</g>
</g>
</svg>