<svg width="28" height="28" viewBox="0 0 28 28" fill="none" xmlns="http://www.w3.org/2000/svg">
<path d="M14.0198 0C10.4223 0.00185452 6.97281 1.43129 4.42993 3.97392C1.88705 6.51656 0.459165 9.9642 0.459961 13.5587C0.45983 15.338 0.810292 17.0999 1.4917 18.7437C2.17311 20.3876 3.17196 21.8813 4.43115 23.1394C5.69034 24.3975 7.18533 25.3955 8.83057 26.0764C10.4758 26.7572 12.239 27.1075 14.0198 27.1074C17.6173 27.1082 21.0678 25.6813 23.6125 23.1406C26.1573 20.5998 27.588 17.1532 27.5898 13.5587C27.5883 9.96321 26.158 6.51541 23.6135 3.97301C21.069 1.4306 17.6183 0.00158871 14.0198 0ZM21.5798 8.92262C21.5793 9.009 21.5514 9.09296 21.5 9.16241C21.1674 9.62621 20.7698 10.04 20.3198 10.3914C20.2498 10.4413 20.1399 10.4913 20.1399 10.5912C20.2016 11.8025 20.0212 13.0139 19.6091 14.1548C19.1971 15.2956 18.5617 16.3429 17.74 17.2356C16.5938 18.3007 15.189 19.0481 13.6648 19.4038C12.1406 19.7596 10.5496 19.7114 9.0498 19.264C8.46886 19.0974 7.90613 18.8731 7.36987 18.5946C7.18987 18.4946 7.01985 18.3947 6.84985 18.2848C6.79985 18.2448 6.76981 18.2049 6.80981 18.1949C6.84981 18.1849 6.86977 18.1749 7.00977 18.1949C7.86042 18.2663 8.71651 18.1538 9.51978 17.8651C10.1363 17.7164 10.7067 17.4178 11.1799 16.9958C11.1799 16.9859 11.19 16.9859 11.2 16.9759C11.09 16.9459 10.9799 16.9459 10.8699 16.9259C10.3257 16.8219 9.817 16.5811 9.39185 16.2262C8.96669 15.8713 8.6392 15.4141 8.43994 14.8976C8.40994 14.8177 8.43979 14.7777 8.52979 14.7977C8.91263 14.8493 9.30161 14.8358 9.67993 14.7577C9.54496 14.7362 9.41354 14.6958 9.28979 14.6378C8.77691 14.4303 8.32825 14.0908 7.98926 13.6538C7.65027 13.2168 7.4331 12.6979 7.35986 12.1499C7.34654 12.0338 7.34318 11.9168 7.34985 11.8002C7.34985 11.7202 7.38996 11.7002 7.45996 11.7402C7.82304 11.9296 8.2213 12.0418 8.62988 12.07C8.49988 11.97 8.37977 11.8501 8.25977 11.7402C7.7912 11.2698 7.48681 10.6612 7.39136 10.0044C7.29591 9.34754 7.41467 8.67746 7.72998 8.09329C7.78998 8.00337 7.8299 8.00336 7.8999 8.08329C9.47387 9.83641 11.6452 10.9407 13.99 11.1807C14.06 11.1907 14.0598 11.1807 14.0598 11.1107C13.9799 10.6904 13.9902 10.2579 14.0898 9.84184C14.1993 9.39999 14.4042 8.98735 14.6899 8.63282C14.9633 8.29386 15.3037 8.01492 15.6899 7.8135C16.0788 7.6141 16.504 7.49518 16.9399 7.46381C17.3902 7.43221 17.8416 7.50401 18.2598 7.67366C18.5761 7.79688 18.8675 7.97626 19.1199 8.20319C19.178 8.24779 19.2315 8.29801 19.2798 8.35309C19.2937 8.37074 19.3127 8.38391 19.334 8.39102C19.3553 8.39812 19.3782 8.39882 19.3999 8.39303C20.015 8.23833 20.6093 8.01022 21.1699 7.7136C21.1812 7.70501 21.1944 7.69956 21.2085 7.69781C21.2226 7.69605 21.237 7.69804 21.25 7.7036C21.27 7.72359 21.26 7.75358 21.25 7.78355C21.1498 8.11564 20.9792 8.42228 20.75 8.68277C20.61 8.86262 20.2598 9.29229 20.0198 9.34225C20.535 9.25888 21.0386 9.11466 21.5198 8.91262C21.5798 8.88264 21.5798 8.87265 21.5798 8.91262V8.92262Z" fill="white"/>
</svg>
